<svg width="512" height="512" viewBox="0 0 512 512" xmlns="http://www.w3.org/2000/svg">
  <!-- 배경 원 -->
  <circle cx="256" cy="256" r="240" fill="#4CAF50" stroke="#2E7D32" stroke-width="8"/>
  
  <!-- 식물 잎사귀 -->
  <path d="M 200 180 Q 180 160 160 180 Q 140 200 160 220 Q 180 240 200 220 Q 220 200 200 180 Z" fill="#8BC34A"/>
  <path d="M 240 160 Q 220 140 200 160 Q 180 180 200 200 Q 220 220 240 200 Q 260 180 240 160 Z" fill="#8BC34A"/>
  <path d="M 280 180 Q 260 160 240 180 Q 220 200 240 220 Q 260 240 280 220 Q 300 200 280 180 Z" fill="#8BC34A"/>
  <path d="M 320 200 Q 300 180 280 200 Q 260 220 280 240 Q 300 260 320 240 Q 340 220 320 200 Z" fill="#8BC34A"/>
  
  <!-- 잎사귀 줄기 -->
  <path d="M 240 240 L 240 320" stroke="#2E7D32" stroke-width="6" fill="none"/>
  
  <!-- 카메라 본체 -->
  <rect x="180" y="280" width="120" height="80" rx="15" fill="#424242"/>
  
  <!-- 카메라 렌즈 -->
  <circle cx="240" cy="320" r="25" fill="#212121"/>
  <circle cx="240" cy="320" r="20" fill="#000000"/>
  <circle cx="240" cy="320" r="15" fill="#1E88E5"/>
  
  <!-- 카메라 플래시 -->
  <circle cx="280" cy="300" r="8" fill="#FFC107"/>
  
  <!-- 카메라 버튼 -->
  <rect x="290" y="310" width="15" height="8" rx="2" fill="#757575"/>
</svg>


